<?xml version="1.0" encoding="utf-8" standalone="no"?>
<!DOCTYPE svg PUBLIC "-//W3C//DTD SVG 1.1//EN"
  "http://www.w3.org/Graphics/SVG/1.1/DTD/svg11.dtd">
<svg xmlns:xlink="http://www.w3.org/1999/xlink" width="426.264582pt" height="275.106122pt" viewBox="0 0 426.264582 275.106122" xmlns="http://www.w3.org/2000/svg" version="1.1">
 <metadata>
  <rdf:RDF xmlns:dc="http://purl.org/dc/elements/1.1/" xmlns:cc="http://creativecommons.org/ns#" xmlns:rdf="http://www.w3.org/1999/02/22-rdf-syntax-ns#">
   <cc:Work>
    <dc:type rdf:resource="http://purl.org/dc/dcmitype/StillImage"/>
    <dc:date>2026-07-02T11:16:23.083797</dc:date>
    <dc:format>image/svg+xml</dc:format>
    <dc:creator>
     <cc:Agent>
      <dc:title>Matplotlib v3.10.7, https://matplotlib.org/</dc:title>
     </cc:Agent>
    </dc:creator>
   </cc:Work>
  </rdf:RDF>
 </metadata>
 <defs>
  <style type="text/css">*{stroke-linejoin: round; stroke-linecap: butt}</style>
 </defs>
 <g id="figure_1">
  <g id="patch_1">
   <path d="M 0 275.106122 
L 426.264582 275.106122 
L 426.264582 0 
L 0 0 
L 0 275.106122 
z
" style="fill: none"/>
  </g>
  <g id="axes_1">
   <g id="patch_2">
    <path d="M 45.6 239.896747 
L 419.064582 239.896747 
L 419.064582 10.572063 
L 45.6 10.572063 
L 45.6 239.896747 
z
" style="fill: none"/>
   </g>
   <g id="matplotlib.axis_1">
    <g id="xtick_1">
     <g id="line2d_1">
      <defs>
       <path id="mb9c04ee203" d="M 0 0 
L 0 3.5 
" style="stroke: #323034; stroke-width: 0.8"/>
      </defs>
      <g>
       <use xlink:href="#mb9c04ee203" x="51.258554" y="239.896747" style="fill: #323034; stroke: #323034; stroke-width: 0.8"/>
      </g>
     </g>
     <g id="text_1">
      <!-- $\mathdefault{−8}$ -->
      <g style="fill: #323034" transform="translate(45.308554 253.726435) scale(0.1 -0.1)">
       <defs>
        <path id="STIXGeneral-Regular-2212" d="M 3974 1408 
L 410 1408 
L 410 1830 
L 3974 1830 
L 3974 1408 
z
" transform="scale(0.015625)"/>
        <path id="STIXGeneral-Regular-38" d="M 2848 992 
Q 2848 499 2505 204 
Q 2163 -90 1587 -90 
Q 1050 -90 704 204 
Q 358 499 358 954 
Q 358 1293 524 1533 
Q 691 1773 1190 2125 
Q 710 2522 553 2765 
Q 397 3008 397 3328 
Q 397 3782 745 4054 
Q 1094 4326 1638 4326 
Q 2106 4326 2410 4060 
Q 2714 3795 2714 3411 
Q 2714 3059 2531 2848 
Q 2349 2637 1856 2374 
Q 2432 1990 2640 1689 
Q 2848 1389 2848 992 
z
M 2272 3411 
Q 2272 3744 2086 3945 
Q 1901 4147 1574 4147 
Q 1248 4147 1059 3977 
Q 870 3808 870 3513 
Q 870 3219 1059 2979 
Q 1248 2739 1670 2490 
Q 1997 2682 2134 2896 
Q 2272 3110 2272 3411 
z
M 1734 1741 
L 1357 1997 
Q 1075 1766 960 1545 
Q 845 1325 845 1011 
Q 845 576 1065 333 
Q 1286 90 1658 90 
Q 1971 90 2166 285 
Q 2362 480 2362 794 
Q 2362 1082 2214 1299 
Q 2067 1517 1734 1741 
z
" transform="scale(0.015625)"/>
       </defs>
       <use xlink:href="#STIXGeneral-Regular-2212" transform="translate(0 0.40625)"/>
       <use xlink:href="#STIXGeneral-Regular-38" transform="translate(68.499985 0.40625)"/>
      </g>
     </g>
    </g>
    <g id="xtick_2">
     <g id="line2d_2">
      <g>
       <use xlink:href="#mb9c04ee203" x="96.526988" y="239.896747" style="fill: #323034; stroke: #323034; stroke-width: 0.8"/>
      </g>
     </g>
     <g id="text_2">
      <!-- $\mathdefault{−6}$ -->
      <g style="fill: #323034" transform="translate(90.576988 253.726435) scale(0.1 -0.1)">
       <defs>
        <path id="STIXGeneral-Regular-36" d="M 2854 4378 
L 2867 4275 
Q 2112 4154 1606 3664 
Q 1101 3174 973 2451 
Q 1344 2739 1786 2739 
Q 2349 2739 2672 2380 
Q 2995 2022 2995 1402 
Q 2995 774 2669 378 
Q 2291 -90 1651 -90 
Q 870 -90 518 557 
Q 218 1107 218 1786 
Q 218 2835 915 3552 
Q 1312 3962 1731 4131 
Q 2150 4301 2854 4378 
z
M 2419 1203 
Q 2419 2445 1555 2445 
Q 1235 2445 1024 2275 
Q 813 2106 813 1702 
Q 813 954 1046 522 
Q 1280 90 1722 90 
Q 2061 90 2240 394 
Q 2419 698 2419 1203 
z
" transform="scale(0.015625)"/>
       </defs>
       <use xlink:href="#STIXGeneral-Regular-2212" transform="translate(0 0.59375)"/>
       <use xlink:href="#STIXGeneral-Regular-36" transform="translate(68.499985 0.59375)"/>
      </g>
     </g>
    </g>
    <g id="xtick_3">
     <g id="line2d_3">
      <g>
       <use xlink:href="#mb9c04ee203" x="141.795423" y="239.896747" style="fill: #323034; stroke: #323034; stroke-width: 0.8"/>
      </g>
     </g>
     <g id="text_3">
      <!-- $\mathdefault{−4}$ -->
      <g style="fill: #323034" transform="translate(135.845423 253.726435) scale(0.1 -0.1)">
       <defs>
        <path id="STIXGeneral-Regular-34" d="M 3027 1069 
L 2368 1069 
L 2368 0 
L 1869 0 
L 1869 1069 
L 77 1069 
L 77 1478 
L 2086 4326 
L 2368 4326 
L 2368 1478 
L 3027 1478 
L 3027 1069 
z
M 1869 1478 
L 1869 3674 
L 333 1478 
L 1869 1478 
z
" transform="scale(0.015625)"/>
       </defs>
       <use xlink:href="#STIXGeneral-Regular-2212" transform="translate(0 0.40625)"/>
       <use xlink:href="#STIXGeneral-Regular-34" transform="translate(68.499985 0.40625)"/>
      </g>
     </g>
    </g>
    <g id="xtick_4">
     <g id="line2d_4">
      <g>
       <use xlink:href="#mb9c04ee203" x="187.063857" y="239.896747" style="fill: #323034; stroke: #323034; stroke-width: 0.8"/>
      </g>
     </g>
     <g id="text_4">
      <!-- $\mathdefault{−2}$ -->
      <g style="fill: #323034" transform="translate(181.113857 253.726435) scale(0.1 -0.1)">
       <defs>
        <path id="STIXGeneral-Regular-32" d="M 3034 877 
L 2688 0 
L 186 0 
L 186 77 
L 1325 1286 
Q 1773 1754 1965 2144 
Q 2157 2534 2157 2950 
Q 2157 3379 1920 3616 
Q 1683 3853 1267 3853 
Q 922 3853 720 3673 
Q 518 3494 326 3021 
L 192 3053 
Q 301 3648 630 3987 
Q 960 4326 1523 4326 
Q 2054 4326 2380 4006 
Q 2707 3686 2707 3200 
Q 2707 2477 1888 1613 
L 832 486 
L 2330 486 
Q 2541 486 2665 569 
Q 2790 653 2944 915 
L 3034 877 
z
" transform="scale(0.015625)"/>
       </defs>
       <use xlink:href="#STIXGeneral-Regular-2212" transform="translate(0 0.40625)"/>
       <use xlink:href="#STIXGeneral-Regular-32" transform="translate(68.499985 0.40625)"/>
      </g>
     </g>
    </g>
    <g id="xtick_5">
     <g id="line2d_5">
      <g>
       <use xlink:href="#mb9c04ee203" x="232.332291" y="239.896747" style="fill: #323034; stroke: #323034; stroke-width: 0.8"/>
      </g>
     </g>
     <g id="text_5">
      <!-- $\mathdefault{0}$ -->
      <g style="fill: #323034" transform="translate(229.832291 253.726435) scale(0.1 -0.1)">
       <defs>
        <path id="STIXGeneral-Regular-30" d="M 3046 2112 
Q 3046 1683 2963 1302 
Q 2880 922 2717 602 
Q 2554 282 2266 96 
Q 1978 -90 1600 -90 
Q 1210 -90 915 108 
Q 621 307 461 640 
Q 301 973 227 1350 
Q 154 1728 154 2150 
Q 154 2746 301 3222 
Q 448 3699 790 4012 
Q 1133 4326 1626 4326 
Q 2253 4326 2649 3712 
Q 3046 3098 3046 2112 
z
M 2432 2080 
Q 2432 3091 2217 3625 
Q 2003 4160 1587 4160 
Q 1190 4160 979 3622 
Q 768 3085 768 2106 
Q 768 1120 979 598 
Q 1190 77 1600 77 
Q 2003 77 2217 598 
Q 2432 1120 2432 2080 
z
" transform="scale(0.015625)"/>
       </defs>
       <use xlink:href="#STIXGeneral-Regular-30" transform="translate(0 0.40625)"/>
      </g>
     </g>
    </g>
    <g id="xtick_6">
     <g id="line2d_6">
      <g>
       <use xlink:href="#mb9c04ee203" x="277.600725" y="239.896747" style="fill: #323034; stroke: #323034; stroke-width: 0.8"/>
      </g>
     </g>
     <g id="text_6">
      <!-- $\mathdefault{2}$ -->
      <g style="fill: #323034" transform="translate(275.100725 253.726435) scale(0.1 -0.1)">
       <use xlink:href="#STIXGeneral-Regular-32" transform="translate(0 0.40625)"/>
      </g>
     </g>
    </g>
    <g id="xtick_7">
     <g id="line2d_7">
      <g>
       <use xlink:href="#mb9c04ee203" x="322.869159" y="239.896747" style="fill: #323034; stroke: #323034; stroke-width: 0.8"/>
      </g>
     </g>
     <g id="text_7">
      <!-- $\mathdefault{4}$ -->
      <g style="fill: #323034" transform="translate(320.369159 253.726435) scale(0.1 -0.1)">
       <use xlink:href="#STIXGeneral-Regular-34" transform="translate(0 0.40625)"/>
      </g>
     </g>
    </g>
    <g id="xtick_8">
     <g id="line2d_8">
      <g>
       <use xlink:href="#mb9c04ee203" x="368.137594" y="239.896747" style="fill: #323034; stroke: #323034; stroke-width: 0.8"/>
      </g>
     </g>
     <g id="text_8">
      <!-- $\mathdefault{6}$ -->
      <g style="fill: #323034" transform="translate(365.637594 253.726435) scale(0.1 -0.1)">
       <use xlink:href="#STIXGeneral-Regular-36" transform="translate(0 0.59375)"/>
      </g>
     </g>
    </g>
    <g id="xtick_9">
     <g id="line2d_9">
      <g>
       <use xlink:href="#mb9c04ee203" x="413.406028" y="239.896747" style="fill: #323034; stroke: #323034; stroke-width: 0.8"/>
      </g>
     </g>
     <g id="text_9">
      <!-- $\mathdefault{8}$ -->
      <g style="fill: #323034" transform="translate(410.906028 253.726435) scale(0.1 -0.1)">
       <use xlink:href="#STIXGeneral-Regular-38" transform="translate(0 0.40625)"/>
      </g>
     </g>
    </g>
    <g id="text_10">
     <!-- Time [days] -->
     <g transform="translate(208.032291 265.726435) scale(0.1 -0.1)">
      <defs>
       <path id="STIXGeneral-Regular-54" d="M 3795 3149 
L 3642 3149 
Q 3539 3674 3353 3821 
Q 3168 3968 2656 3968 
L 2278 3968 
L 2278 710 
Q 2278 346 2387 243 
Q 2496 141 2893 122 
L 2893 0 
L 1024 0 
L 1024 122 
Q 1427 147 1526 256 
Q 1626 365 1626 787 
L 1626 3968 
L 1242 3968 
Q 723 3968 540 3817 
Q 358 3667 262 3149 
L 109 3149 
L 154 4237 
L 3750 4237 
L 3795 3149 
z
" transform="scale(0.015625)"/>
       <path id="STIXGeneral-Regular-69" d="M 1152 4045 
Q 1152 3904 1056 3811 
Q 960 3718 819 3718 
Q 685 3718 592 3811 
Q 499 3904 499 4045 
Q 499 4179 595 4275 
Q 691 4371 826 4371 
Q 966 4371 1059 4275 
Q 1152 4179 1152 4045 
z
M 1619 0 
L 102 0 
L 102 96 
Q 435 115 521 211 
Q 608 307 608 666 
L 608 2118 
Q 608 2342 563 2432 
Q 518 2522 397 2522 
Q 243 2522 128 2490 
L 128 2592 
L 1120 2944 
L 1146 2918 
L 1146 672 
Q 1146 314 1226 218 
Q 1306 122 1619 96 
L 1619 0 
z
" transform="scale(0.015625)"/>
       <path id="STIXGeneral-Regular-6d" d="M 4960 0 
L 3565 0 
L 3565 96 
Q 3834 122 3907 208 
Q 3981 294 3981 576 
L 3981 1894 
Q 3981 2278 3869 2444 
Q 3757 2611 3488 2611 
Q 3264 2611 3107 2521 
Q 2950 2432 2803 2221 
L 2803 608 
Q 2803 301 2896 201 
Q 2989 102 3264 96 
L 3264 0 
L 1830 0 
L 1830 96 
Q 2112 115 2189 188 
Q 2266 262 2266 550 
L 2266 1901 
Q 2266 2611 1850 2611 
Q 1670 2611 1468 2531 
Q 1267 2451 1171 2336 
Q 1088 2240 1088 2227 
L 1088 448 
Q 1088 243 1177 176 
Q 1267 109 1523 96 
L 1523 0 
L 102 0 
L 102 96 
Q 371 102 460 195 
Q 550 288 550 563 
L 550 2150 
Q 550 2387 499 2480 
Q 448 2573 326 2573 
Q 230 2573 122 2547 
L 122 2656 
Q 557 2778 1011 2944 
L 1062 2925 
L 1062 2451 
L 1075 2451 
Q 1363 2752 1584 2848 
Q 1805 2944 2054 2944 
Q 2560 2944 2733 2406 
Q 3232 2944 3776 2944 
Q 4518 2944 4518 1792 
L 4518 493 
Q 4518 282 4582 202 
Q 4646 122 4794 109 
L 4960 96 
L 4960 0 
z
" transform="scale(0.015625)"/>
       <path id="STIXGeneral-Regular-65" d="M 2611 1050 
L 2714 1005 
Q 2330 -64 1376 -64 
Q 813 -64 486 329 
Q 160 723 160 1389 
Q 160 2074 525 2509 
Q 890 2944 1485 2944 
Q 2061 2944 2374 2502 
Q 2560 2246 2592 1773 
L 621 1773 
Q 646 1370 700 1158 
Q 755 947 915 730 
Q 1184 378 1626 378 
Q 1939 378 2153 531 
Q 2368 685 2611 1050 
z
M 634 1978 
L 1939 1978 
Q 1882 2381 1750 2547 
Q 1619 2714 1312 2714 
Q 1043 2714 864 2525 
Q 685 2336 634 1978 
z
" transform="scale(0.015625)"/>
       <path id="STIXGeneral-Regular-20" transform="scale(0.015625)"/>
       <path id="STIXGeneral-Regular-5b" d="M 1914 -998 
L 563 -998 
L 563 4237 
L 1914 4237 
L 1914 4077 
L 1382 4077 
Q 1216 4077 1133 4006 
Q 1050 3936 1050 3770 
L 1050 -493 
Q 1050 -838 1382 -838 
L 1914 -838 
L 1914 -998 
z
" transform="scale(0.015625)"/>
       <path id="STIXGeneral-Regular-64" d="M 3142 269 
L 2202 -64 
L 2176 -45 
L 2176 365 
Q 1869 -64 1357 -64 
Q 826 -64 499 317 
Q 173 698 173 1312 
Q 173 1990 563 2467 
Q 954 2944 1504 2944 
Q 1850 2944 2176 2669 
L 2176 3667 
Q 2176 3866 2118 3930 
Q 2061 3994 1882 3994 
Q 1792 3994 1741 3987 
L 1741 4090 
Q 2323 4243 2682 4371 
L 2714 4358 
L 2714 730 
Q 2714 506 2768 435 
Q 2822 365 2995 365 
Q 3034 365 3142 371 
L 3142 269 
z
M 2176 653 
L 2176 2125 
Q 2176 2381 1981 2573 
Q 1786 2765 1523 2765 
Q 1158 2765 940 2438 
Q 723 2112 723 1568 
Q 723 979 963 624 
Q 1203 269 1606 269 
Q 1907 269 2080 474 
Q 2176 582 2176 653 
z
" transform="scale(0.015625)"/>
       <path id="STIXGeneral-Regular-61" d="M 2829 422 
L 2829 243 
Q 2586 -64 2253 -64 
Q 1888 -64 1843 403 
L 1837 403 
Q 1427 -64 909 -64 
Q 608 -64 422 112 
Q 237 288 237 602 
Q 237 1050 685 1350 
Q 992 1555 1837 1869 
L 1837 2214 
Q 1837 2502 1699 2646 
Q 1562 2790 1338 2790 
Q 1146 2790 1018 2697 
Q 890 2605 890 2477 
Q 890 2419 909 2348 
Q 928 2278 928 2208 
Q 928 2112 841 2029 
Q 755 1946 634 1946 
Q 525 1946 441 2029 
Q 358 2112 358 2240 
Q 358 2547 685 2752 
Q 986 2944 1421 2944 
Q 1939 2944 2176 2656 
Q 2291 2522 2323 2384 
Q 2355 2246 2355 1946 
L 2355 723 
Q 2355 301 2554 301 
Q 2682 301 2829 422 
z
M 1837 813 
L 1837 1715 
Q 1248 1510 1018 1293 
Q 800 1094 800 800 
Q 800 557 921 432 
Q 1043 307 1242 307 
Q 1453 307 1613 410 
Q 1747 506 1792 589 
Q 1837 672 1837 813 
z
" transform="scale(0.015625)"/>
       <path id="STIXGeneral-Regular-79" d="M 3040 2880 
L 3040 2784 
Q 2925 2771 2854 2700 
Q 2784 2630 2720 2458 
L 1760 -160 
Q 1510 -838 1257 -1116 
Q 1005 -1395 640 -1395 
Q 435 -1395 313 -1289 
Q 192 -1184 192 -1024 
Q 192 -902 272 -816 
Q 352 -730 467 -730 
Q 653 -730 800 -813 
Q 883 -858 966 -858 
Q 1101 -858 1286 -576 
Q 1376 -448 1459 -211 
Q 1542 26 1542 115 
Q 1542 198 1274 762 
L 429 2566 
Q 346 2752 90 2790 
L 90 2880 
L 1402 2880 
L 1402 2784 
Q 1197 2778 1117 2739 
Q 1037 2701 1037 2611 
Q 1037 2541 1120 2349 
L 1837 749 
L 2458 2515 
Q 2483 2573 2483 2630 
Q 2483 2784 2189 2784 
L 2189 2880 
L 3040 2880 
z
" transform="scale(0.015625)"/>
       <path id="STIXGeneral-Regular-73" d="M 998 1926 
L 1664 1523 
Q 1984 1331 2105 1164 
Q 2227 998 2227 736 
Q 2227 416 1961 176 
Q 1696 -64 1331 -64 
Q 1030 -64 864 -6 
Q 691 51 570 51 
Q 461 51 416 -26 
L 333 -26 
L 333 979 
L 435 979 
Q 538 512 730 294 
Q 922 77 1248 77 
Q 1485 77 1632 211 
Q 1779 346 1779 550 
Q 1779 845 1440 1030 
L 1094 1222 
Q 326 1651 326 2150 
Q 326 2522 566 2730 
Q 806 2938 1210 2938 
Q 1491 2938 1638 2867 
Q 1754 2816 1818 2816 
Q 1862 2816 1920 2880 
L 1990 2880 
L 2022 2010 
L 1926 2010 
Q 1818 2445 1654 2621 
Q 1491 2797 1203 2797 
Q 986 2797 854 2688 
Q 723 2579 723 2362 
Q 723 2253 796 2128 
Q 870 2003 998 1926 
z
" transform="scale(0.015625)"/>
       <path id="STIXGeneral-Regular-5d" d="M 1568 -998 
L 218 -998 
L 218 -838 
L 781 -838 
Q 947 -838 1014 -768 
Q 1082 -698 1082 -544 
L 1082 3731 
Q 1082 4077 755 4077 
L 218 4077 
L 218 4237 
L 1568 4237 
L 1568 -998 
z
" transform="scale(0.015625)"/>
      </defs>
      <use xlink:href="#STIXGeneral-Regular-54"/>
      <use xlink:href="#STIXGeneral-Regular-69" transform="translate(61.099991 0)"/>
      <use xlink:href="#STIXGeneral-Regular-6d" transform="translate(88.899979 0)"/>
      <use xlink:href="#STIXGeneral-Regular-65" transform="translate(166.699966 0)"/>
      <use xlink:href="#STIXGeneral-Regular-20" transform="translate(211.09996 0)"/>
      <use xlink:href="#STIXGeneral-Regular-5b" transform="translate(236.099945 0)"/>
      <use xlink:href="#STIXGeneral-Regular-64" transform="translate(269.399933 0)"/>
      <use xlink:href="#STIXGeneral-Regular-61" transform="translate(319.399918 0)"/>
      <use xlink:href="#STIXGeneral-Regular-79" transform="translate(363.799911 0)"/>
      <use xlink:href="#STIXGeneral-Regular-73" transform="translate(413.799896 0)"/>
      <use xlink:href="#STIXGeneral-Regular-5d" transform="translate(452.69989 0)"/>
     </g>
    </g>
   </g>
   <g id="matplotlib.axis_2">
    <g id="ytick_1">
     <g id="line2d_10">
      <defs>
       <path id="m6b8bf36d9e" d="M 0 0 
L -3.5 0 
" style="stroke: #323034; stroke-width: 0.8"/>
      </defs>
      <g>
       <use xlink:href="#m6b8bf36d9e" x="45.6" y="235.088737" style="fill: #323034; stroke: #323034; stroke-width: 0.8"/>
      </g>
     </g>
     <g id="text_11">
      <!-- $\mathdefault{−0.6}$ -->
      <g style="fill: #323034" transform="translate(19.2 238.503581) scale(0.1 -0.1)">
       <defs>
        <path id="STIXGeneral-Regular-2e" d="M 1158 275 
Q 1158 134 1052 32 
Q 947 -70 800 -70 
Q 653 -70 550 32 
Q 448 134 448 281 
Q 448 429 553 534 
Q 659 640 806 640 
Q 947 640 1052 531 
Q 1158 422 1158 275 
z
" transform="scale(0.015625)"/>
       </defs>
       <use xlink:href="#STIXGeneral-Regular-2212" transform="translate(0 0.59375)"/>
       <use xlink:href="#STIXGeneral-Regular-30" transform="translate(68.499985 0.59375)"/>
       <use xlink:href="#STIXGeneral-Regular-2e" transform="translate(118.499969 0.59375)"/>
       <use xlink:href="#STIXGeneral-Regular-36" transform="translate(143.499954 0.59375)"/>
      </g>
     </g>
    </g>
    <g id="ytick_2">
     <g id="line2d_11">
      <g>
       <use xlink:href="#m6b8bf36d9e" x="45.6" y="203.021038" style="fill: #323034; stroke: #323034; stroke-width: 0.8"/>
      </g>
     </g>
     <g id="text_12">
      <!-- $\mathdefault{−0.4}$ -->
      <g style="fill: #323034" transform="translate(19.2 206.435882) scale(0.1 -0.1)">
       <use xlink:href="#STIXGeneral-Regular-2212" transform="translate(0 0.40625)"/>
       <use xlink:href="#STIXGeneral-Regular-30" transform="translate(68.499985 0.40625)"/>
       <use xlink:href="#STIXGeneral-Regular-2e" transform="translate(118.499969 0.40625)"/>
       <use xlink:href="#STIXGeneral-Regular-34" transform="translate(143.499954 0.40625)"/>
      </g>
     </g>
    </g>
    <g id="ytick_3">
     <g id="line2d_12">
      <g>
       <use xlink:href="#m6b8bf36d9e" x="45.6" y="170.953339" style="fill: #323034; stroke: #323034; stroke-width: 0.8"/>
      </g>
     </g>
     <g id="text_13">
      <!-- $\mathdefault{−0.2}$ -->
      <g style="fill: #323034" transform="translate(19.2 174.368183) scale(0.1 -0.1)">
       <use xlink:href="#STIXGeneral-Regular-2212" transform="translate(0 0.40625)"/>
       <use xlink:href="#STIXGeneral-Regular-30" transform="translate(68.499985 0.40625)"/>
       <use xlink:href="#STIXGeneral-Regular-2e" transform="translate(118.499969 0.40625)"/>
       <use xlink:href="#STIXGeneral-Regular-32" transform="translate(143.499954 0.40625)"/>
      </g>
     </g>
    </g>
    <g id="ytick_4">
     <g id="line2d_13">
      <g>
       <use xlink:href="#m6b8bf36d9e" x="45.6" y="138.88564" style="fill: #323034; stroke: #323034; stroke-width: 0.8"/>
      </g>
     </g>
     <g id="text_14">
      <!-- $\mathdefault{0.0}$ -->
      <g style="fill: #323034" transform="translate(26.1 142.300484) scale(0.1 -0.1)">
       <use xlink:href="#STIXGeneral-Regular-30" transform="translate(0 0.40625)"/>
       <use xlink:href="#STIXGeneral-Regular-2e" transform="translate(49.999985 0.40625)"/>
       <use xlink:href="#STIXGeneral-Regular-30" transform="translate(74.999969 0.40625)"/>
      </g>
     </g>
    </g>
    <g id="ytick_5">
     <g id="line2d_14">
      <g>
       <use xlink:href="#m6b8bf36d9e" x="45.6" y="106.817941" style="fill: #323034; stroke: #323034; stroke-width: 0.8"/>
      </g>
     </g>
     <g id="text_15">
      <!-- $\mathdefault{0.2}$ -->
      <g style="fill: #323034" transform="translate(26.1 110.232785) scale(0.1 -0.1)">
       <use xlink:href="#STIXGeneral-Regular-30" transform="translate(0 0.40625)"/>
       <use xlink:href="#STIXGeneral-Regular-2e" transform="translate(49.999985 0.40625)"/>
       <use xlink:href="#STIXGeneral-Regular-32" transform="translate(74.999969 0.40625)"/>
      </g>
     </g>
    </g>
    <g id="ytick_6">
     <g id="line2d_15">
      <g>
       <use xlink:href="#m6b8bf36d9e" x="45.6" y="74.750242" style="fill: #323034; stroke: #323034; stroke-width: 0.8"/>
      </g>
     </g>
     <g id="text_16">
      <!-- $\mathdefault{0.4}$ -->
      <g style="fill: #323034" transform="translate(26.1 78.165086) scale(0.1 -0.1)">
       <use xlink:href="#STIXGeneral-Regular-30" transform="translate(0 0.40625)"/>
       <use xlink:href="#STIXGeneral-Regular-2e" transform="translate(49.999985 0.40625)"/>
       <use xlink:href="#STIXGeneral-Regular-34" transform="translate(74.999969 0.40625)"/>
      </g>
     </g>
    </g>
    <g id="ytick_7">
     <g id="line2d_16">
      <g>
       <use xlink:href="#m6b8bf36d9e" x="45.6" y="42.682543" style="fill: #323034; stroke: #323034; stroke-width: 0.8"/>
      </g>
     </g>
     <g id="text_17">
      <!-- $\mathdefault{0.6}$ -->
      <g style="fill: #323034" transform="translate(26.1 46.097387) scale(0.1 -0.1)">
       <use xlink:href="#STIXGeneral-Regular-30" transform="translate(0 0.59375)"/>
       <use xlink:href="#STIXGeneral-Regular-2e" transform="translate(49.999985 0.59375)"/>
       <use xlink:href="#STIXGeneral-Regular-36" transform="translate(74.999969 0.59375)"/>
      </g>
     </g>
    </g>
    <g id="ytick_8">
     <g id="line2d_17">
      <g>
       <use xlink:href="#m6b8bf36d9e" x="45.6" y="10.614844" style="fill: #323034; stroke: #323034; stroke-width: 0.8"/>
      </g>
     </g>
     <g id="text_18">
      <!-- $\mathdefault{0.8}$ -->
      <g style="fill: #323034" transform="translate(26.1 14.029688) scale(0.1 -0.1)">
       <use xlink:href="#STIXGeneral-Regular-30" transform="translate(0 0.40625)"/>
       <use xlink:href="#STIXGeneral-Regular-2e" transform="translate(49.999985 0.40625)"/>
       <use xlink:href="#STIXGeneral-Regular-38" transform="translate(74.999969 0.40625)"/>
      </g>
     </g>
    </g>
    <g id="text_19">
     <!-- Z-score -->
     <g transform="translate(14.029688 140.510187) rotate(-90) scale(0.1 -0.1)">
      <defs>
       <path id="STIXGeneral-Regular-5a" d="M 3827 1126 
L 3667 0 
L 64 0 
L 64 96 
L 2861 3994 
L 1491 3994 
Q 858 3994 634 3770 
Q 518 3648 470 3529 
Q 422 3411 371 3142 
L 205 3142 
L 339 4237 
L 3699 4237 
L 3699 4141 
L 934 243 
L 2547 243 
Q 3046 243 3296 422 
Q 3443 525 3513 662 
Q 3584 800 3680 1126 
L 3827 1126 
z
" transform="scale(0.015625)"/>
       <path id="STIXGeneral-Regular-2d" d="M 1824 1242 
L 250 1242 
L 250 1645 
L 1824 1645 
L 1824 1242 
z
" transform="scale(0.015625)"/>
       <path id="STIXGeneral-Regular-63" d="M 2547 998 
L 2637 941 
Q 2362 403 2112 205 
Q 1786 -64 1376 -64 
Q 845 -64 502 336 
Q 160 736 160 1357 
Q 160 2170 698 2618 
Q 1094 2944 1562 2944 
Q 1965 2944 2256 2749 
Q 2547 2554 2547 2285 
Q 2547 2176 2457 2096 
Q 2368 2016 2246 2016 
Q 2022 2016 1939 2310 
L 1901 2451 
Q 1850 2630 1773 2694 
Q 1696 2758 1523 2758 
Q 1133 2758 893 2451 
Q 653 2144 653 1645 
Q 653 1094 928 745 
Q 1203 397 1645 397 
Q 1920 397 2118 528 
Q 2317 659 2547 998 
z
" transform="scale(0.015625)"/>
       <path id="STIXGeneral-Regular-6f" d="M 3008 1478 
Q 3008 806 2608 371 
Q 2208 -64 1568 -64 
Q 979 -64 582 368 
Q 186 800 186 1459 
Q 186 2125 582 2534 
Q 979 2944 1626 2944 
Q 2221 2944 2614 2537 
Q 3008 2131 3008 1478 
z
M 2432 1306 
Q 2432 2035 2112 2445 
Q 1856 2765 1504 2765 
Q 1171 2765 966 2493 
Q 762 2221 762 1747 
Q 762 928 1101 435 
Q 1318 115 1677 115 
Q 2029 115 2230 432 
Q 2432 749 2432 1306 
z
" transform="scale(0.015625)"/>
       <path id="STIXGeneral-Regular-72" d="M 1024 2931 
L 1024 2342 
Q 1267 2688 1430 2816 
Q 1594 2944 1792 2944 
Q 1958 2944 2051 2854 
Q 2144 2765 2144 2605 
Q 2144 2470 2077 2393 
Q 2010 2317 1894 2317 
Q 1773 2317 1638 2445 
Q 1536 2541 1472 2541 
Q 1338 2541 1181 2355 
Q 1024 2170 1024 2016 
L 1024 576 
Q 1024 301 1133 205 
Q 1242 109 1568 96 
L 1568 0 
L 32 0 
L 32 96 
Q 339 154 412 224 
Q 486 294 486 538 
L 486 2138 
Q 486 2349 438 2435 
Q 390 2522 269 2522 
Q 166 2522 45 2496 
L 45 2598 
Q 448 2726 992 2944 
L 1024 2931 
z
" transform="scale(0.015625)"/>
      </defs>
      <use xlink:href="#STIXGeneral-Regular-5a"/>
      <use xlink:href="#STIXGeneral-Regular-2d" transform="translate(61.199997 0)"/>
      <use xlink:href="#STIXGeneral-Regular-73" transform="translate(94.499985 0)"/>
      <use xlink:href="#STIXGeneral-Regular-63" transform="translate(133.399979 0)"/>
      <use xlink:href="#STIXGeneral-Regular-6f" transform="translate(177.799973 0)"/>
      <use xlink:href="#STIXGeneral-Regular-72" transform="translate(227.799957 0)"/>
      <use xlink:href="#STIXGeneral-Regular-65" transform="translate(261.099945 0)"/>
     </g>
    </g>
   </g>
   <g id="line2d_18">
    <path d="M 62.575663 163.702238 
L 63.047427 155.422587 
L 63.361937 152.518233 
L 63.833702 150.198429 
L 65.248996 136.74814 
L 65.563505 131.812036 
L 66.03527 119.72987 
L 66.507034 109.579159 
L 66.664289 108.676964 
L 66.821544 108.742703 
L 67.136054 109.54488 
L 67.293309 109.354733 
L 67.922328 107.564421 
L 68.394093 104.490424 
L 68.551348 104.722583 
L 69.337622 108.883019 
L 69.494877 108.738999 
L 69.652132 108.056681 
L 70.281151 103.53566 
L 70.438406 104.514663 
L 71.22468 114.844403 
L 71.53919 117.929285 
L 72.010955 123.163272 
L 72.16821 123.582391 
L 72.325465 123.578626 
L 72.639974 123.151233 
L 73.268994 121.737546 
L 73.740758 119.214076 
L 73.898013 119.072276 
L 74.055268 119.136327 
L 74.212523 119.445397 
L 74.527033 121.512386 
L 74.684288 122.611891 
L 74.841542 122.73136 
L 74.998797 121.482931 
L 76.099581 104.387188 
L 76.414091 99.298157 
L 76.571346 98.182729 
L 76.728601 98.032578 
L 76.885856 98.83632 
L 77.35762 103.326092 
L 77.514875 103.379572 
L 77.829385 101.954914 
L 77.98664 102.350448 
L 78.301149 104.567457 
L 78.458404 104.955245 
L 78.772914 104.724705 
L 78.930169 104.873762 
L 79.244679 106.153873 
L 79.559188 108.761271 
L 80.188208 115.168033 
L 80.502718 116.117819 
L 80.817227 116.459556 
L 80.974482 116.310787 
L 81.131737 115.935322 
L 81.446247 114.11196 
L 81.760757 111.989636 
L 81.918011 111.638368 
L 82.389776 112.199402 
L 82.704286 109.866838 
L 83.962325 99.405274 
L 84.591344 96.558109 
L 84.748599 96.91887 
L 85.220364 101.382867 
L 86.792912 118.875067 
L 86.950167 118.957297 
L 87.264677 118.124504 
L 87.421932 118.255835 
L 87.579187 119.098598 
L 87.893696 123.476469 
L 88.679971 137.238865 
L 88.99448 138.987801 
L 89.6235 139.842434 
L 89.780755 139.799908 
L 89.93801 139.225702 
L 90.567029 134.64403 
L 91.353303 127.170358 
L 91.510558 127.538556 
L 92.296833 132.492636 
L 92.925852 129.003055 
L 93.083107 130.309213 
L 93.397617 137.15043 
L 93.869381 146.686217 
L 95.44193 160.971959 
L 96.228204 164.111772 
L 96.385459 163.971975 
L 96.699969 163.312018 
L 96.857224 163.759125 
L 97.171733 166.184994 
L 97.328988 166.205247 
L 97.486243 164.400321 
L 98.429772 146.101381 
L 98.901537 143.742069 
L 99.058792 143.465776 
L 99.216047 143.498802 
L 99.373302 143.817155 
L 99.530556 144.524813 
L 99.845066 148.261999 
L 100.159576 153.134309 
L 100.788595 157.904691 
L 100.94585 158.727715 
L 101.103105 158.81181 
L 101.26036 157.718222 
L 101.57487 151.617828 
L 101.889379 145.218932 
L 102.203889 143.151501 
L 102.518399 142.291774 
L 102.832909 142.170017 
L 102.990163 142.153178 
L 103.147418 142.279049 
L 103.461928 142.883566 
L 103.619183 142.846321 
L 103.776438 142.225022 
L 104.719967 135.287139 
L 104.877222 135.238813 
L 105.034477 135.040726 
L 105.506241 133.031032 
L 105.663496 133.005403 
L 105.820751 133.725018 
L 106.135261 137.540889 
L 106.76428 145.494842 
L 107.236045 149.622502 
L 107.550555 150.33336 
L 107.707809 150.544473 
L 108.022319 152.240749 
L 108.808594 158.149808 
L 109.123103 158.894498 
L 109.280358 159.740414 
L 109.594868 163.619622 
L 110.223887 172.209922 
L 111.010162 179.945576 
L 111.324671 181.163959 
L 111.481926 181.351751 
L 111.639181 181.802282 
L 111.953691 184.168289 
L 112.268201 186.348443 
L 112.425455 186.394596 
L 112.89722 185.015442 
L 113.368985 182.929295 
L 113.683494 180.517385 
L 114.155259 173.557897 
L 115.256043 156.724474 
L 115.413298 156.316212 
L 115.885063 156.845375 
L 116.042317 156.096737 
L 116.828592 148.633547 
L 116.985847 149.206766 
L 117.772121 154.231091 
L 118.558395 158.104846 
L 118.872905 163.398193 
L 119.816434 186.084995 
L 119.973689 186.050327 
L 120.288199 181.776245 
L 120.602709 177.872385 
L 120.759963 177.486368 
L 120.917218 178.183668 
L 121.388983 182.651806 
L 121.546238 182.699218 
L 122.018002 180.705771 
L 122.175257 181.028489 
L 122.489767 182.105509 
L 122.961531 183.029764 
L 123.118786 182.341444 
L 123.433296 177.228328 
L 124.062316 165.52632 
L 124.376825 161.948263 
L 124.53408 161.871044 
L 124.84859 164.800212 
L 125.320354 168.669535 
L 125.477609 169.019994 
L 125.634864 168.932328 
L 125.792119 168.973837 
L 125.949374 169.822152 
L 126.263884 174.613747 
L 126.735648 182.72933 
L 127.364668 189.919106 
L 127.521923 190.557438 
L 127.679177 190.70859 
L 127.836432 190.310279 
L 128.150942 188.551525 
L 128.308197 188.434985 
L 128.465452 189.428934 
L 128.937216 194.22308 
L 129.094471 194.1655 
L 129.880746 189.981007 
L 130.509765 180.001923 
L 132.239569 142.238784 
L 132.396823 141.713238 
L 132.868588 143.118163 
L 133.183098 139.9193 
L 133.497608 137.085113 
L 133.654862 137.06394 
L 133.812117 137.351248 
L 133.969372 137.116787 
L 134.598392 133.406555 
L 134.755646 133.873018 
L 135.070156 136.925457 
L 135.856431 149.10797 
L 136.013685 148.596909 
L 136.642705 143.998944 
L 136.79996 143.515997 
L 136.957215 143.657908 
L 137.271724 145.162875 
L 137.900744 148.85014 
L 138.057999 149.106595 
L 138.215254 148.917672 
L 138.529763 147.995649 
L 138.687018 148.17662 
L 139.158783 152.00408 
L 139.316038 151.632639 
L 139.630547 146.942217 
L 140.416822 128.394316 
L 140.574077 127.794556 
L 140.731331 128.024731 
L 141.045841 129.153399 
L 141.360351 130.389054 
L 141.517606 129.990722 
L 141.832115 126.104982 
L 144.190938 86.491355 
L 144.662703 82.302361 
L 145.134468 80.419874 
L 145.606232 78.651822 
L 145.920742 75.260844 
L 146.392507 69.764328 
L 146.707016 68.110662 
L 146.864271 67.816876 
L 147.021526 68.068984 
L 147.336036 70.634152 
L 147.650546 73.563474 
L 148.12231 74.849155 
L 148.279565 76.175995 
L 149.065839 88.039919 
L 149.223094 87.578615 
L 149.537604 82.639033 
L 149.852114 77.819731 
L 150.009369 77.057707 
L 150.166623 77.280299 
L 150.638388 79.481173 
L 150.795643 79.192681 
L 151.267407 77.779985 
L 151.581917 77.574594 
L 151.739172 77.74475 
L 151.896427 78.509531 
L 152.368192 82.373831 
L 152.525446 82.577581 
L 152.682701 81.997262 
L 152.997211 78.689356 
L 153.311721 74.505213 
L 153.468976 73.649928 
L 153.62623 74.029962 
L 153.94074 77.640811 
L 154.25525 81.172056 
L 154.412505 81.915857 
L 154.56976 82.03948 
L 154.727014 81.948801 
L 154.884269 82.272015 
L 155.041524 83.544934 
L 155.670544 90.995685 
L 155.827799 90.613484 
L 156.614073 86.929455 
L 156.771328 86.830628 
L 156.928583 87.859528 
L 158.029367 101.463024 
L 158.972896 115.39596 
L 159.287406 116.718872 
L 159.44466 116.697632 
L 159.601915 116.022959 
L 160.230935 110.25962 
L 160.38819 110.178543 
L 160.545445 109.94388 
L 161.174464 105.426727 
L 161.488974 101.326402 
L 162.275248 87.583793 
L 162.589758 86.861812 
L 163.061522 84.262216 
L 163.218777 84.676797 
L 163.533287 86.380209 
L 163.690542 86.585724 
L 163.847797 86.338774 
L 164.476816 84.195788 
L 164.791326 85.009196 
L 165.105836 86.50483 
L 165.420345 88.303071 
L 165.5776 88.576025 
L 165.734855 88.408752 
L 166.049365 87.749296 
L 166.20662 87.664746 
L 166.363875 87.852838 
L 166.992894 89.866024 
L 167.150149 89.561708 
L 167.464659 87.298642 
L 168.093678 80.125627 
L 168.250933 79.47478 
L 168.408188 79.474462 
L 168.565443 80.142714 
L 169.666227 87.796588 
L 170.137991 88.542762 
L 170.452501 90.138291 
L 170.767011 92.004775 
L 170.924266 92.124384 
L 171.081521 91.579792 
L 171.39603 88.488801 
L 171.71054 84.868966 
L 171.867795 84.25305 
L 172.02505 84.508354 
L 172.496814 86.573504 
L 172.968579 88.517867 
L 173.125834 88.25504 
L 173.440344 86.143799 
L 174.226618 78.25638 
L 174.698383 77.07867 
L 175.170147 74.899856 
L 175.327402 74.980156 
L 175.641912 76.757345 
L 176.585441 84.03534 
L 176.742696 83.074523 
L 178.787009 61.706279 
L 178.944264 62.077401 
L 179.730538 68.37695 
L 180.516813 75.619619 
L 180.831322 74.716842 
L 180.988577 74.846258 
L 181.145832 76.263556 
L 182.089361 90.696632 
L 182.403871 93.080152 
L 182.718381 97.778119 
L 183.190145 105.350065 
L 184.133675 111.895846 
L 184.290929 112.236007 
L 184.448184 111.673486 
L 184.762694 108.665895 
L 185.234459 103.699067 
L 185.863478 100.381377 
L 186.492497 97.888008 
L 186.649752 97.662247 
L 186.807007 98.021502 
L 187.436027 100.499837 
L 187.750536 101.182079 
L 187.907791 101.348707 
L 188.065046 101.302974 
L 188.222301 100.918083 
L 188.536811 99.574911 
L 188.694066 99.710406 
L 189.008575 102.993255 
L 189.48034 111.829275 
L 189.952105 121.309452 
L 190.266614 124.665318 
L 190.423869 125.226731 
L 190.581124 124.871971 
L 191.367398 120.055212 
L 191.524653 120.429734 
L 191.996418 123.697927 
L 192.310928 125.7578 
L 192.468182 126.135817 
L 192.782692 125.825212 
L 192.939947 126.070039 
L 193.568966 129.488163 
L 193.726221 128.998843 
L 194.040731 124.773486 
L 194.355241 120.468977 
L 194.827005 118.052943 
L 194.98426 117.951411 
L 195.141515 118.731372 
L 195.456025 122.890903 
L 196.085044 133.476575 
L 196.399554 135.410406 
L 196.714064 137.396262 
L 197.185828 141.488782 
L 197.343083 141.414413 
L 197.972103 138.012893 
L 198.129358 138.132968 
L 198.286612 139.289501 
L 198.601122 145.008662 
L 199.072887 152.829619 
L 199.387397 157.772011 
L 200.488181 179.112381 
L 201.274455 192.964549 
L 201.74622 197.270142 
L 202.689749 211.078575 
L 203.318768 215.215039 
L 203.947788 220.38527 
L 204.419552 222.155369 
L 204.576807 222.294195 
L 204.734062 221.93885 
L 205.048572 220.059318 
L 205.834846 212.130887 
L 205.992101 211.70579 
L 206.149356 212.101248 
L 206.62112 215.068049 
L 206.778375 214.911962 
L 207.25014 210.788444 
L 207.721904 205.887802 
L 208.350924 198.696562 
L 208.979943 194.601557 
L 209.451708 189.174312 
L 209.766218 187.743063 
L 209.923473 187.694018 
L 210.080727 188.048419 
L 210.395237 190.356266 
L 210.709747 192.684259 
L 211.024257 194.317687 
L 211.338766 198.166026 
L 212.282296 216.451321 
L 212.596805 219.356815 
L 212.75406 219.604007 
L 212.911315 219.010546 
L 213.540335 214.120185 
L 213.854844 210.787126 
L 214.326609 205.521112 
L 214.641119 204.343731 
L 214.955628 201.114725 
L 216.056412 185.678339 
L 216.842687 167.316596 
L 216.999942 166.191646 
L 217.157196 166.178985 
L 217.471706 168.262247 
L 217.943471 173.687907 
L 218.25798 179.812177 
L 218.887 194.851628 
L 219.987784 208.445407 
L 220.302294 208.093737 
L 220.459549 208.694735 
L 220.774058 212.931733 
L 221.560333 228.595642 
L 221.717588 229.472898 
L 221.874842 229.469713 
L 222.032097 228.532799 
L 222.661117 222.004666 
L 222.975626 220.136021 
L 223.919156 212.29245 
L 224.233665 211.505725 
L 224.39092 211.378751 
L 224.548175 211.781909 
L 225.491704 217.251913 
L 225.648959 216.480931 
L 226.435234 209.206148 
L 226.592488 209.877155 
L 226.906998 211.987935 
L 227.064253 211.917341 
L 227.221508 210.45885 
L 227.536018 204.143307 
L 228.007782 189.985291 
L 228.636802 161.555878 
L 230.83837 57.073734 
L 231.939154 21.924167 
L 232.096409 20.995913 
L 232.253664 21.71635 
L 232.568173 26.653192 
L 233.039938 38.467315 
L 233.668957 62.670717 
L 234.612487 102.113371 
L 236.02778 162.728948 
L 236.6568 192.639902 
L 237.128564 204.448791 
L 237.443074 208.197204 
L 237.914839 210.976132 
L 238.543858 218.1932 
L 239.172878 226.064719 
L 239.644642 227.89178 
L 239.801897 228.090534 
L 239.959152 227.809246 
L 240.116407 226.792688 
L 240.430917 222.216415 
L 241.059936 208.396822 
L 241.531701 197.093031 
L 241.688956 195.53812 
L 241.84621 195.5855 
L 242.47523 200.195543 
L 242.632485 199.182546 
L 243.418759 189.916339 
L 243.576014 190.928367 
L 244.047779 195.630616 
L 244.362288 197.060957 
L 244.676798 197.465796 
L 244.834053 197.340227 
L 245.148563 196.436897 
L 245.463072 194.831772 
L 245.620327 194.777431 
L 245.777582 195.849319 
L 246.249347 200.378773 
L 246.406602 199.309239 
L 247.350131 187.037051 
L 247.664641 184.002178 
L 247.97915 177.913555 
L 248.60817 163.223275 
L 248.922679 159.925136 
L 249.237189 158.324559 
L 249.394444 158.286528 
L 250.023463 160.369888 
L 250.180718 159.924069 
L 250.495228 157.235666 
L 250.966993 152.365923 
L 251.124248 152.153106 
L 251.438757 152.686858 
L 251.753267 153.37354 
L 252.067777 155.423874 
L 252.696796 160.657235 
L 252.854051 160.902741 
L 253.011306 160.483866 
L 253.325816 159.090824 
L 253.483071 158.850458 
L 253.640325 158.894376 
L 253.954835 158.656424 
L 254.11209 159.023575 
L 254.269345 160.406615 
L 254.583855 165.986399 
L 255.212874 177.470424 
L 255.370129 179.014794 
L 255.527384 179.310917 
L 255.684639 178.296724 
L 257.257187 159.016791 
L 257.571697 157.844374 
L 257.728952 157.557853 
L 257.886207 156.982633 
L 258.672481 151.815565 
L 258.986991 146.148198 
L 259.773265 128.104727 
L 259.93052 127.423953 
L 260.087775 128.067682 
L 260.402285 131.109995 
L 260.716794 135.913193 
L 261.345814 147.197738 
L 261.660324 149.555246 
L 261.974833 150.530746 
L 262.132088 149.825938 
L 262.446598 144.987097 
L 263.075617 134.084196 
L 263.232872 133.434594 
L 263.390127 134.286257 
L 264.333656 144.997025 
L 264.490911 144.750179 
L 265.119931 141.715511 
L 265.43444 137.169009 
L 265.74895 132.460758 
L 265.906205 131.530441 
L 266.06346 131.559349 
L 266.37797 132.935783 
L 266.692479 135.758918 
L 267.164244 140.883036 
L 267.478754 141.916632 
L 267.636009 141.762695 
L 267.950518 139.308813 
L 268.579538 132.31437 
L 269.208557 123.399157 
L 269.365812 123.316513 
L 269.680322 125.957253 
L 269.994832 129.290731 
L 270.152086 130.094229 
L 270.309341 129.836568 
L 270.623851 126.586093 
L 271.25287 119.403106 
L 271.410125 119.086506 
L 271.724635 120.25875 
L 271.88189 120.182113 
L 272.1964 117.688462 
L 272.668164 110.067842 
L 272.982674 105.718134 
L 273.454439 102.696054 
L 273.768948 98.696649 
L 274.712478 82.36359 
L 275.341497 77.412612 
L 276.285026 62.96667 
L 276.442281 62.714704 
L 276.756791 64.770497 
L 277.071301 69.035625 
L 278.801104 100.548377 
L 279.272869 102.967684 
L 279.587378 104.247103 
L 280.059143 105.316623 
L 280.530908 107.033278 
L 281.317182 114.374533 
L 281.474437 114.109748 
L 281.946201 112.588668 
L 282.103456 112.751575 
L 282.417966 114.287477 
L 282.732476 115.530704 
L 282.889731 115.632884 
L 283.046985 116.01007 
L 283.361495 118.958577 
L 283.676005 122.155396 
L 283.83326 122.755002 
L 283.990515 122.748988 
L 284.305024 122.254771 
L 284.462279 122.492291 
L 285.405808 125.700785 
L 285.563063 125.924538 
L 285.720318 126.392262 
L 286.034828 128.613663 
L 286.663847 134.528773 
L 286.821102 135.080437 
L 286.978357 134.974595 
L 287.292867 133.00162 
L 287.921886 128.338504 
L 288.079141 128.338121 
L 288.236396 129.215584 
L 288.550906 134.806824 
L 289.179925 151.481945 
L 289.808945 160.461579 
L 289.9662 160.848541 
L 290.595219 159.818123 
L 290.909729 160.177032 
L 291.066984 160.013886 
L 291.381493 159.225036 
L 291.538748 159.31119 
L 291.853258 160.754377 
L 292.325023 163.062497 
L 292.482277 162.921355 
L 292.796787 160.734562 
L 293.425807 154.741781 
L 293.740316 153.659062 
L 293.897571 152.407332 
L 294.369336 145.412552 
L 294.526591 145.348904 
L 294.8411 149.828213 
L 295.627375 166.850079 
L 296.099139 176.777844 
L 296.413649 180.060159 
L 297.042669 183.638407 
L 297.671688 190.754896 
L 297.828943 190.693288 
L 298.300707 187.70624 
L 298.457962 188.345644 
L 298.772472 194.246178 
L 299.244237 202.207787 
L 299.401492 203.374375 
L 299.558746 203.574263 
L 299.716001 202.479886 
L 300.345021 194.673179 
L 301.28855 190.012631 
L 301.60306 187.434053 
L 302.389334 174.762831 
L 302.546589 174.957797 
L 303.018353 180.551383 
L 303.175608 180.550897 
L 303.647373 176.912135 
L 304.433647 170.69163 
L 305.062667 161.953321 
L 305.219922 161.587792 
L 305.691686 162.984206 
L 306.006196 162.299234 
L 306.163451 162.635652 
L 306.477961 165.092893 
L 306.79247 168.041753 
L 306.949725 168.556782 
L 307.10698 167.697827 
L 308.836784 146.744966 
L 309.151293 146.915904 
L 309.308548 146.716211 
L 309.623058 145.245624 
L 309.937568 142.033092 
L 310.723842 130.840892 
L 311.195607 123.598601 
L 311.352861 123.080496 
L 311.981881 124.778119 
L 312.139136 124.84953 
L 312.296391 124.486016 
L 312.768155 121.89111 
L 312.92541 121.705489 
L 313.082665 121.920414 
L 313.23992 121.908923 
L 313.397175 121.142358 
L 314.026194 116.462832 
L 314.183449 116.719724 
L 314.497959 119.36413 
L 314.969723 125.138015 
L 315.913252 137.015971 
L 317.171291 144.135805 
L 317.328546 144.50907 
L 317.643056 143.717219 
L 317.800311 143.910732 
L 318.114821 146.55257 
L 318.42933 149.118089 
L 318.586585 149.280965 
L 319.05835 146.738562 
L 319.215605 147.509833 
L 319.530114 152.543377 
L 320.001879 161.025178 
L 320.159134 161.636681 
L 320.316389 161.2432 
L 320.630898 159.851426 
L 320.788153 159.552214 
L 320.945408 159.657532 
L 321.102663 160.238474 
L 321.574428 163.267989 
L 321.888937 163.517874 
L 322.203447 164.15485 
L 323.304231 161.827981 
L 323.461486 162.125765 
L 323.775996 163.334502 
L 323.933251 163.53974 
L 324.090506 163.207627 
L 325.19129 158.109089 
L 325.820309 155.904471 
L 325.977564 155.852639 
L 326.292074 157.686615 
L 327.078348 162.051019 
L 327.392858 162.871072 
L 327.707367 165.706742 
L 328.179132 170.677491 
L 328.336387 171.133916 
L 328.650897 170.982491 
L 328.808152 171.184509 
L 329.437171 172.772889 
L 329.594426 172.793986 
L 329.908936 172.655 
L 330.06619 172.795676 
L 330.3807 173.837595 
L 331.00972 177.279204 
L 332.267759 185.976076 
L 332.425013 185.994178 
L 332.739523 183.779948 
L 333.054033 179.923389 
L 333.525798 173.3308 
L 333.683052 173.41487 
L 333.997562 176.469039 
L 334.469327 181.490705 
L 334.941091 184.098978 
L 335.255601 184.950829 
L 335.412856 184.402174 
L 336.19913 177.390605 
L 336.356385 177.489761 
L 336.51364 178.114175 
L 336.82815 181.173438 
L 337.457169 190.614562 
L 337.928934 195.133955 
L 338.243444 197.985485 
L 339.029718 201.202374 
L 339.186973 200.560776 
L 339.501482 196.758004 
L 339.815992 192.727827 
L 340.130502 190.892293 
L 340.602267 188.961221 
L 340.916776 185.001171 
L 341.545796 168.909604 
L 341.860305 162.703033 
L 342.174815 160.520915 
L 342.33207 160.034168 
L 342.64658 156.95915 
L 343.118344 151.179933 
L 343.747364 146.090866 
L 344.376383 138.647485 
L 344.533638 138.18021 
L 344.690893 138.381505 
L 345.005403 140.291106 
L 345.477167 144.019494 
L 345.634422 144.084548 
L 345.791677 142.860272 
L 346.892461 127.295753 
L 347.206971 124.858342 
L 347.678735 121.909807 
L 347.993245 119.847597 
L 348.1505 120.190955 
L 348.46501 124.509879 
L 348.77952 128.798696 
L 348.936774 129.363713 
L 349.094029 129.061577 
L 349.408539 126.740968 
L 349.723049 121.316892 
L 350.037558 114.88834 
L 350.194813 113.526667 
L 350.352068 113.722758 
L 350.823833 118.234518 
L 351.452852 123.335818 
L 351.924617 125.91258 
L 352.239127 126.516658 
L 352.396381 126.33923 
L 352.710891 125.219824 
L 353.182656 123.454589 
L 353.339911 123.199329 
L 353.497166 123.218999 
L 353.811675 124.146109 
L 354.755204 127.939648 
L 355.226969 132.028957 
L 355.384224 131.954999 
L 355.698734 129.042694 
L 356.170498 125.411981 
L 356.642263 120.458891 
L 357.271282 114.483956 
L 357.743047 111.819677 
L 358.372066 110.026287 
L 358.529321 110.432145 
L 358.843831 113.842949 
L 359.158341 117.162491 
L 359.315596 117.762927 
L 359.47285 117.553017 
L 360.41638 112.850651 
L 360.573635 113.201246 
L 360.888144 117.146369 
L 361.202654 120.402535 
L 361.359909 120.186989 
L 361.674419 117.639463 
L 362.617948 108.579179 
L 362.775203 108.267128 
L 362.932458 107.622932 
L 363.246967 103.560873 
L 363.561477 100.315168 
L 364.190496 97.73483 
L 364.347751 98.268031 
L 364.662261 101.864539 
L 364.976771 105.371437 
L 365.134026 105.5726 
L 365.448535 102.728347 
L 365.60579 101.411343 
L 365.763045 101.214711 
L 365.9203 102.199963 
L 366.392065 108.313019 
L 366.863829 114.631166 
L 367.021084 115.49084 
L 367.178339 115.597203 
L 367.492849 114.994018 
L 367.650104 115.670449 
L 368.908142 127.126442 
L 369.222652 128.457591 
L 369.379907 128.724911 
L 369.537162 128.509334 
L 369.851672 127.875121 
L 370.008927 127.831978 
L 370.166181 127.60315 
L 370.480691 126.574542 
L 370.637946 126.397687 
L 370.795201 126.529808 
L 371.109711 127.530309 
L 371.581475 129.258489 
L 371.895985 129.389138 
L 372.05324 129.919682 
L 372.525004 132.737295 
L 372.682259 132.702369 
L 372.996769 132.140794 
L 373.154024 132.509781 
L 373.468534 134.70806 
L 374.254808 141.669346 
L 374.412063 141.606031 
L 375.041082 139.890039 
L 375.355592 136.995349 
L 375.827357 131.87255 
L 375.984611 131.534295 
L 376.456376 132.625857 
L 376.613631 131.491366 
L 377.24265 121.562423 
L 377.87167 109.203032 
L 378.815199 90.696351 
L 378.972454 91.076077 
L 379.758728 99.558761 
L 380.230493 108.660577 
L 380.545003 113.81519 
L 380.702257 114.548266 
L 380.859512 114.418048 
L 381.174022 113.788514 
L 381.488532 113.618578 
L 381.645787 113.767007 
L 381.803041 114.455247 
L 382.589316 120.680224 
L 382.903826 120.884948 
L 383.06108 120.886548 
L 383.218335 120.383218 
L 383.532845 116.359309 
L 383.847355 112.922455 
L 384.00461 112.56025 
L 384.161864 112.617186 
L 384.319119 112.531068 
L 384.476374 111.71308 
L 384.790884 106.883156 
L 385.262649 98.725573 
L 385.419903 98.91962 
L 385.734413 104.24377 
L 386.206178 112.358577 
L 386.363433 113.24351 
L 386.677942 113.624437 
L 387.464217 116.010678 
L 387.621472 116.098516 
L 387.778726 115.599182 
L 388.093236 112.857711 
L 388.722256 106.114471 
L 388.87951 105.755483 
L 389.036765 105.92035 
L 389.351275 107.05824 
L 389.82304 110.550077 
L 389.980295 110.228142 
L 390.294804 105.194838 
L 390.766569 97.061662 
L 391.081079 94.466785 
L 391.710098 91.384706 
L 391.867353 91.269785 
L 392.024608 91.594674 
L 392.181863 92.511045 
L 392.968137 99.589849 
L 393.125392 98.508459 
L 393.597156 91.672529 
L 393.754411 91.07183 
L 394.068921 91.410217 
L 394.383431 91.347516 
L 394.540686 91.816146 
L 394.855195 94.679624 
L 395.64147 103.576388 
L 395.798725 104.208608 
L 395.955979 104.310823 
L 396.270489 104.015345 
L 396.427744 103.740788 
L 396.899509 102.369127 
L 397.056764 102.725283 
L 397.371273 104.680094 
L 397.843038 108.834094 
L 398.000293 109.047637 
L 398.157548 107.977434 
L 398.472057 104.543162 
L 399.101077 101.603291 
L 399.730096 96.106876 
L 400.044606 95.681492 
L 400.359116 95.557111 
L 400.673625 96.139896 
L 400.988135 97.253542 
L 401.617155 102.088631 
L 402.088919 103.107413 
L 402.088919 103.107413 
" clip-path="url(#p3b94aa380e)" style="fill: none; stroke: #bc80bd; stroke-linecap: square"/>
   </g>
   <g id="line2d_19">
    <path d="M 232.332291 239.896747 
L 232.332291 10.572063 
" clip-path="url(#p3b94aa380e)" style="fill: none; stroke-dasharray: 2.96,1.28; stroke-dashoffset: 0; stroke: #bc80bd; stroke-width: 0.8"/>
   </g>
   <g id="patch_3">
    <path d="M 45.6 239.896747 
L 45.6 10.572063 
" style="fill: none; stroke: #000000; stroke-width: 0.7; stroke-linejoin: miter; stroke-linecap: square"/>
   </g>
   <g id="patch_4">
    <path d="M 45.6 239.896747 
L 419.064582 239.896747 
" style="fill: none; stroke: #000000; stroke-width: 0.7; stroke-linejoin: miter; stroke-linecap: square"/>
   </g>
   <g id="legend_1">
    <g id="line2d_20">
     <path d="M 326.022395 21.072063 
L 336.022395 21.072063 
L 346.022395 21.072063 
" style="fill: none; stroke-dasharray: 2.96,1.28; stroke-dashoffset: 0; stroke: #bc80bd; stroke-width: 0.8"/>
    </g>
    <g id="text_20">
     <!-- injected epoch -->
     <g style="fill: #323034" transform="translate(354.022395 24.572063) scale(0.1 -0.1)">
      <defs>
       <path id="STIXGeneral-Regular-6e" d="M 3104 0 
L 1773 0 
L 1779 96 
Q 2016 115 2096 233 
Q 2176 352 2176 672 
L 2176 1946 
Q 2176 2592 1709 2592 
Q 1549 2592 1408 2515 
Q 1267 2438 1050 2227 
L 1050 461 
Q 1050 269 1136 192 
Q 1222 115 1466 96 
L 1466 0 
L 115 0 
L 115 96 
Q 358 115 435 214 
Q 512 314 512 602 
L 512 2157 
Q 512 2394 467 2483 
Q 422 2573 288 2573 
Q 160 2573 102 2547 
L 102 2656 
Q 550 2784 979 2944 
L 1030 2925 
L 1030 2426 
L 1037 2426 
Q 1491 2944 1958 2944 
Q 2323 2944 2518 2688 
Q 2714 2432 2714 1958 
L 2714 544 
Q 2714 288 2790 205 
Q 2867 122 3104 96 
L 3104 0 
z
" transform="scale(0.015625)"/>
       <path id="STIXGeneral-Regular-6a" d="M 1242 4045 
Q 1242 3904 1146 3811 
Q 1050 3718 909 3718 
Q 774 3718 681 3811 
Q 589 3904 589 4045 
Q 589 4179 685 4275 
Q 781 4371 915 4371 
Q 1050 4371 1146 4275 
Q 1242 4179 1242 4045 
z
M 1235 2925 
L 1235 0 
Q 1235 -685 956 -1040 
Q 678 -1395 147 -1395 
Q -115 -1395 -281 -1296 
Q -448 -1197 -448 -1043 
Q -448 -941 -371 -867 
Q -294 -794 -186 -794 
Q -38 -794 122 -998 
Q 269 -1178 390 -1178 
Q 538 -1178 608 -1062 
Q 698 -902 698 -288 
L 698 2138 
Q 698 2522 493 2522 
Q 339 2522 237 2502 
L 205 2496 
L 205 2598 
Q 717 2758 1203 2944 
L 1235 2925 
z
" transform="scale(0.015625)"/>
       <path id="STIXGeneral-Regular-74" d="M 1702 493 
L 1786 422 
Q 1478 -64 1011 -64 
Q 448 -64 448 749 
L 448 2675 
L 109 2675 
Q 83 2694 83 2720 
Q 83 2771 192 2842 
Q 435 2982 813 3526 
Q 826 3546 874 3606 
Q 922 3667 941 3706 
Q 986 3706 986 3622 
L 986 2880 
L 1632 2880 
L 1632 2675 
L 986 2675 
L 986 845 
Q 986 538 1062 403 
Q 1139 269 1318 269 
Q 1510 269 1702 493 
z
" transform="scale(0.015625)"/>
       <path id="STIXGeneral-Regular-70" d="M 1018 2931 
L 1018 2438 
Q 1421 2944 1939 2944 
Q 2406 2944 2707 2560 
Q 3008 2176 3008 1581 
Q 3008 883 2621 409 
Q 2234 -64 1664 -64 
Q 1466 -64 1328 -6 
Q 1190 51 1018 211 
L 1018 -794 
Q 1018 -1094 1120 -1180 
Q 1222 -1267 1581 -1274 
L 1581 -1389 
L 32 -1389 
L 32 -1280 
Q 314 -1254 397 -1171 
Q 480 -1088 480 -838 
L 480 2157 
Q 480 2381 429 2451 
Q 378 2522 218 2522 
Q 115 2522 58 2515 
L 58 2618 
Q 506 2752 979 2944 
L 1018 2931 
z
M 1018 2138 
L 1018 563 
Q 1018 422 1238 281 
Q 1459 141 1683 141 
Q 2029 141 2243 467 
Q 2458 794 2458 1325 
Q 2458 1888 2243 2224 
Q 2029 2560 1670 2560 
Q 1446 2560 1232 2419 
Q 1018 2278 1018 2138 
z
" transform="scale(0.015625)"/>
       <path id="STIXGeneral-Regular-68" d="M 3117 0 
L 1760 0 
L 1760 96 
Q 2042 128 2118 224 
Q 2195 320 2195 653 
L 2195 1920 
Q 2195 2598 1722 2598 
Q 1530 2598 1370 2508 
Q 1210 2419 1005 2195 
L 1005 653 
Q 1005 320 1081 224 
Q 1158 128 1440 96 
L 1440 0 
L 58 0 
L 58 96 
Q 333 134 400 224 
Q 467 314 467 653 
L 467 3667 
Q 467 3872 406 3933 
Q 346 3994 141 3994 
Q 83 3994 64 3987 
L 64 4090 
L 237 4141 
Q 730 4288 973 4371 
L 1005 4352 
L 1005 2406 
Q 1229 2694 1446 2819 
Q 1664 2944 1946 2944 
Q 2733 2944 2733 1926 
L 2733 653 
Q 2733 320 2793 233 
Q 2854 147 3117 96 
L 3117 0 
z
" transform="scale(0.015625)"/>
      </defs>
      <use xlink:href="#STIXGeneral-Regular-69"/>
      <use xlink:href="#STIXGeneral-Regular-6e" transform="translate(27.799988 0)"/>
      <use xlink:href="#STIXGeneral-Regular-6a" transform="translate(77.799973 0)"/>
      <use xlink:href="#STIXGeneral-Regular-65" transform="translate(105.59996 0)"/>
      <use xlink:href="#STIXGeneral-Regular-63" transform="translate(149.999954 0)"/>
      <use xlink:href="#STIXGeneral-Regular-74" transform="translate(194.399948 0)"/>
      <use xlink:href="#STIXGeneral-Regular-65" transform="translate(222.199936 0)"/>
      <use xlink:href="#STIXGeneral-Regular-64" transform="translate(266.59993 0)"/>
      <use xlink:href="#STIXGeneral-Regular-20" transform="translate(316.599915 0)"/>
      <use xlink:href="#STIXGeneral-Regular-65" transform="translate(341.599899 0)"/>
      <use xlink:href="#STIXGeneral-Regular-70" transform="translate(385.999893 0)"/>
      <use xlink:href="#STIXGeneral-Regular-6f" transform="translate(435.999878 0)"/>
      <use xlink:href="#STIXGeneral-Regular-63" transform="translate(485.999863 0)"/>
      <use xlink:href="#STIXGeneral-Regular-68" transform="translate(530.399857 0)"/>
     </g>
    </g>
   </g>
  </g>
 </g>
 <defs>
  <clipPath id="p3b94aa380e">
   <rect x="45.6" y="10.572063" width="373.464582" height="229.324684"/>
  </clipPath>
 </defs>
</svg>
